5-NewFont-Italic.ufo
<glyph name="one" format="2">
	<advance width="296"/>
	<unicode hex="0031"/>
	<outline>
		<contour>
			<point x="17" y="0" type="curve"/>
			<point x="145" y="0" type="line"/>
			<point x="138" y="40"/>
			<point x="139" y="65"/>
			<point x="152" y="125" type="curve" smooth="yes"/>
			<point x="247" y="573" type="line" smooth="yes"/>
			<point x="260" y="633"/>
			<point x="272" y="670"/>
			<point x="284" y="698" type="curve"/>
			<point x="180" y="698" type="line"/>
			<point x="156" y="642"/>
			<point x="95" y="576"/>
			<point x="69" y="547" type="curve"/>
			<point x="133" y="513" type="line"/>
			<point x="54" y="125" type="line" smooth="yes"/>
			<point x="42" y="65"/>
			<point x="29" y="28"/>
		</contour>
	</outline>
</glyph>
<glyph name="five" format="2">
	<advance width="622"/>
	<unicode hex="0035"/>
	<outline>
		<contour>
			<point x="230" y="395" type="line"/>
			<point x="341" y="666"/>
			<point x="363" y="673"/>
			<point x="372" y="691" type="curve"/>
			<point x="232" y="700" type="line"/>
			<point x="232" y="700"/>
			<point x="236" y="643"/>
			<point x="224" y="615" type="curve" smooth="yes"/>
			<point x="205" y="567"/>
			<point x="146" y="439"/>
			<point x="133" y="413" type="curve"/>
		</contour>
		<contour>
			<point x="275" y="602" type="line"/>
			<point x="405" y="607" type="line" smooth="yes"/>
			<point x="520" y="611"/>
			<point x="563" y="604"/>
			<point x="586" y="599" type="curve"/>
			<point x="603" y="709" type="line"/>
			<point x="603" y="709"/>
			<point x="564" y="701"/>
			<point x="510" y="700" type="curve" smooth="yes"/>
			<point x="419" y="699"/>
			<point x="265" y="700"/>
			<point x="232" y="700" type="curve"/>
		</contour>
		<contour>
			<point x="182" y="363" type="line"/>
			<point x="199" y="373"/>
			<point x="238" y="389"/>
			<point x="290" y="389" type="curve" smooth="yes"/>
			<point x="353" y="389"/>
			<point x="437" y="346"/>
			<point x="437" y="262" type="curve" smooth="yes"/>
			<point x="437" y="140"/>
			<point x="332" y="58"/>
			<point x="210" y="58" type="curve" smooth="yes"/>
			<point x="132" y="58"/>
			<point x="101" y="89"/>
			<point x="43" y="143" type="curve"/>
			<point x="-2" y="39" type="line"/>
			<point x="31" y="19"/>
			<point x="93" y="-10"/>
			<point x="209" y="-10" type="curve" smooth="yes"/>
			<point x="405" y="-10"/>
			<point x="565" y="111"/>
			<point x="565" y="275" type="curve" smooth="yes"/>
			<point x="565" y="395"/>
			<point x="436" y="461"/>
			<point x="307" y="461" type="curve" smooth="yes"/>
			<point x="231" y="461"/>
			<point x="164" y="434"/>
			<point x="133" y="413" type="curve"/>
		</contour>
	</outline>
</glyph>
<glyph name="A" format="2">
	<advance width="737"/>
	<unicode hex="0041"/>
	<outline>
		<contour>
			<point x="516" y="575" type="curve" smooth="yes"/>
			<point x="534" y="125" type="line" smooth="yes"/>
			<point x="536" y="65"/>
			<point x="533" y="40"/>
			<point x="525" y="0" type="curve"/>
			<point x="671" y="0" type="line"/>
			<point x="664" y="28"/>
			<point x="659" y="65"/>
			<point x="657" y="125" type="curve" smooth="yes"/>
			<point x="639" y="575" type="line" smooth="yes"/>
			<point x="637" y="635"/>
			<point x="640" y="660"/>
			<point x="648" y="700" type="curve"/>
			<point x="502" y="700" type="line"/>
			<point x="509" y="672"/>
			<point x="514" y="635"/>
		</contour>
		<contour>
			<point x="455" y="700" type="line"/>
			<point x="101" y="147" type="line" smooth="yes"/>
			<point x="69" y="97"/>
			<point x="35" y="49"/>
			<point x="-3" y="0" type="curve"/>
			<point x="122" y="0" type="line"/>
			<point x="145" y="43"/>
			<point x="168" y="87"/>
			<point x="195" y="129" type="curve" smooth="yes"/>
			<point x="560" y="700" type="line"/>
		</contour>
		<contour>
			<point x="206" y="273" type="line"/>
			<point x="191" y="183" type="line"/>
			<point x="583" y="183" type="line"/>
			<point x="598" y="273" type="line"/>
		</contour>
	</outline>
</glyph>
<glyph name="C" format="2">
	<advance width="560"/>
	<unicode hex="0043"/>
	<outline>
		<contour>
			<point x="512" y="146" type="curve"/>
			<point x="452" y="205" type="line"/>
			<point x="377" y="115"/>
			<point x="292" y="80"/>
			<point x="207" y="80" type="curve" smooth="yes"/>
			<point x="68" y="80"/>
			<point x="11" y="157"/>
			<point x="11" y="259" type="curve" smooth="yes"/>
			<point x="11" y="411"/>
			<point x="134" y="607"/>
			<point x="302" y="607" type="curve" smooth="yes"/>
			<point x="405" y="607"/>
			<point x="475" y="564"/>
			<point x="522" y="473" type="curve"/>
			<point x="604" y="547" type="line"/>
			<point x="538" y="643"/>
			<point x="433" y="695"/>
			<point x="304" y="695" type="curve" smooth="yes"/>
			<point x="71" y="695"/>
			<point x="-97" y="445"/>
			<point x="-97" y="246" type="curve" smooth="yes"/>
			<point x="-97" y="105"/>
			<point x="-13" y="-5"/>
			<point x="192" y="-5" type="curve" smooth="yes"/>
			<point x="349" y="-5"/>
			<point x="439" y="49"/>
		</contour>
	</outline>
</glyph>
<glyph name="H" format="2">
	<advance width="831"/>
	<unicode hex="0048"/>
	<outline>
		<contour>
			<point x="281" y="575" type="line" smooth="yes"/>
			<point x="294" y="635"/>
			<point x="306" y="672"/>
			<point x="318" y="700" type="curve"/>
			<point x="183" y="700" type="line"/>
			<point x="183" y="660"/>
			<point x="182" y="635"/>
			<point x="169" y="575" type="curve" smooth="yes"/>
			<point x="73" y="125" type="line" smooth="yes"/>
			<point x="60" y="65"/>
			<point x="48" y="28"/>
			<point x="36" y="0" type="curve"/>
			<point x="171" y="0" type="line"/>
			<point x="171" y="40"/>
			<point x="172" y="65"/>
			<point x="185" y="125" type="curve" smooth="yes"/>
		</contour>
		<contour>
			<point x="801" y="575" type="line" smooth="yes"/>
			<point x="814" y="635"/>
			<point x="826" y="672"/>
			<point x="838" y="700" type="curve"/>
			<point x="703" y="700" type="line"/>
			<point x="703" y="660"/>
			<point x="702" y="635"/>
			<point x="689" y="575" type="curve" smooth="yes"/>
			<point x="593" y="125" type="line" smooth="yes"/>
			<point x="580" y="65"/>
			<point x="568" y="28"/>
			<point x="556" y="0" type="curve"/>
			<point x="691" y="0" type="line"/>
			<point x="691" y="40"/>
			<point x="692" y="65"/>
			<point x="705" y="125" type="curve" smooth="yes"/>
		</contour>
		<contour>
			<point x="197" y="403" type="line"/>
			<point x="197" y="313" type="line"/>
			<point x="679" y="313" type="line"/>
			<point x="679" y="403" type="line"/>
		</contour>
	</outline>
</glyph>
<glyph name="I" format="2">
	<advance width="311"/>
	<unicode hex="0049"/>
	<outline>
		<contour>
			<point x="281" y="575" type="line" smooth="yes"/>
			<point x="294" y="635"/>
			<point x="306" y="672"/>
			<point x="318" y="700" type="curve"/>
			<point x="183" y="700" type="line"/>
			<point x="183" y="660"/>
			<point x="182" y="635"/>
			<point x="169" y="575" type="curve" smooth="yes"/>
			<point x="73" y="125" type="line" smooth="yes"/>
			<point x="60" y="65"/>
			<point x="48" y="28"/>
			<point x="36" y="0" type="curve"/>
			<point x="171" y="0" type="line"/>
			<point x="171" y="40"/>
			<point x="172" y="65"/>
			<point x="185" y="125" type="curve" smooth="yes"/>
		</contour>
	</outline>
</glyph>
<glyph name="N" format="2">
	<advance width="831"/>
	<unicode hex="004E"/>
	<guideline x="136" y="421" angle="258"/>
	<outline>
		<contour>
			<point x="267" y="575" type="line" smooth="yes"/>
			<point x="280" y="635"/>
			<point x="292" y="672"/>
			<point x="304" y="700" type="curve"/>
			<point x="183" y="700" type="line"/>
			<point x="183" y="660"/>
			<point x="182" y="635"/>
			<point x="169" y="575" type="curve" smooth="yes"/>
			<point x="73" y="125" type="line" smooth="yes"/>
			<point x="60" y="65"/>
			<point x="48" y="28"/>
			<point x="36" y="0" type="curve"/>
			<point x="157" y="0" type="line"/>
			<point x="157" y="40"/>
			<point x="158" y="65"/>
			<point x="171" y="125" type="curve" smooth="yes"/>
		</contour>
		<contour>
			<point x="801" y="575" type="line" smooth="yes"/>
			<point x="814" y="635"/>
			<point x="826" y="672"/>
			<point x="838" y="700" type="curve"/>
			<point x="717" y="700" type="line"/>
			<point x="717" y="660"/>
			<point x="716" y="635"/>
			<point x="703" y="575" type="curve" smooth="yes"/>
			<point x="607" y="125" type="line" smooth="yes"/>
			<point x="594" y="65"/>
			<point x="582" y="28"/>
			<point x="570" y="0" type="curve"/>
			<point x="678" y="0" type="line"/>
		</contour>
		<contour>
			<point x="336" y="700" type="line"/>
			<point x="206" y="700" type="line"/>
			<point x="530" y="0" type="line"/>
			<point x="660" y="0" type="line"/>
		</contour>
	</outline>
</glyph>
<glyph name="T" format="2">
	<advance width="686"/>
	<unicode hex="0054"/>
	<guideline x="63" y="350" angle="257.9574"/>
	<guideline x="203" y="350" angle="257.9574"/>
	<outline>
		<contour>
			<point x="457" y="575" type="line" smooth="yes"/>
			<point x="470" y="635"/>
			<point x="492" y="672"/>
			<point x="504" y="700" type="curve"/>
			<point x="369" y="700" type="line"/>
			<point x="369" y="660"/>
			<point x="368" y="635"/>
			<point x="355" y="575" type="curve" smooth="yes"/>
			<point x="323" y="425"/>
			<point x="291" y="275"/>
			<point x="259" y="125" type="curve" smooth="yes"/>
			<point x="246" y="65"/>
			<point x="234" y="28"/>
			<point x="222" y="0" type="curve"/>
			<point x="357" y="0" type="line"/>
			<point x="357" y="40"/>
			<point x="348" y="65"/>
			<point x="361" y="125" type="curve" smooth="yes"/>
		</contour>
		<contour>
			<point x="463" y="575" type="line" smooth="yes"/>
			<point x="476" y="635"/>
			<point x="488" y="672"/>
			<point x="500" y="700" type="curve"/>
			<point x="365" y="700" type="line"/>
			<point x="365" y="660"/>
			<point x="364" y="635"/>
			<point x="351" y="575" type="curve" smooth="yes"/>
			<point x="255" y="125" type="line" smooth="yes"/>
			<point x="242" y="65"/>
			<point x="230" y="28"/>
			<point x="218" y="0" type="curve"/>
			<point x="353" y="0" type="line"/>
			<point x="353" y="40"/>
			<point x="354" y="65"/>
			<point x="367" y="125" type="curve" smooth="yes"/>
		</contour>
		<contour>
			<point x="250" y="625" type="curve" smooth="yes"/>
			<point x="579" y="619" type="line" smooth="yes"/>
			<point x="639" y="618"/>
			<point x="663" y="600"/>
			<point x="701" y="590" type="curve"/>
			<point x="723" y="705" type="line"/>
			<point x="694" y="699"/>
			<point x="656" y="696"/>
			<point x="596" y="697" type="curve" smooth="yes"/>
			<point x="273" y="703" type="line" smooth="yes"/>
			<point x="213" y="704"/>
			<point x="189" y="708"/>
			<point x="151" y="718" type="curve"/>
			<point x="123" y="603" type="line"/>
			<point x="152" y="609"/>
			<point x="190" y="626"/>
		</contour>
	</outline>
</glyph>
<glyph name="V" format="2">
	<advance width="637"/>
	<unicode hex="0056"/>
	<outline>
		<contour>
			<point x="107" y="0" type="curve"/>
			<point x="270" y="0" type="line"/>
			<point x="295" y="112" type="line"/>
			<point x="219" y="92" type="line"/>
			<point x="175" y="563" type="line"/>
			<point x="167" y="697" type="line"/>
			<point x="32" y="697" type="line"/>
			<point x="49" y="632"/>
			<point x="63" y="589"/>
			<point x="75" y="493" type="curve" smooth="yes"/>
			<point x="110" y="203" type="line" smooth="yes"/>
			<point x="121" y="108"/>
			<point x="120" y="46"/>
		</contour>
		<contour>
			<point x="522" y="497" type="line" smooth="yes"/>
			<point x="568" y="593"/>
			<point x="610" y="654"/>
			<point x="638" y="700" type="curve"/>
			<point x="499" y="700" type="line"/>
			<point x="467" y="603" type="line"/>
			<point x="277" y="203" type="line"/>
			<point x="183" y="0" type="line"/>
			<point x="302" y="0" type="line"/>
			<point x="307" y="65"/>
			<point x="338" y="108"/>
			<point x="383" y="203" type="curve" smooth="yes"/>
		</contour>
	</outline>
</glyph>
<glyph name="W" format="2">
	<advance width="906"/>
	<unicode hex="0057"/>
	<outline>
		<contour>
			<point x="113" y="0" type="curve"/>
			<point x="256" y="0" type="line"/>
			<point x="274" y="92" type="line"/>
			<point x="218" y="92" type="line"/>
			<point x="173" y="493" type="line"/>
			<point x="169" y="589"/>
			<point x="167" y="651"/>
			<point x="169" y="697" type="curve"/>
			<point x="35" y="697" type="line"/>
			<point x="52" y="632"/>
			<point x="63" y="588"/>
			<point x="74" y="493" type="curve" smooth="yes"/>
			<point x="115" y="127" type="line" smooth="yes"/>
			<point x="123" y="52"/>
			<point x="115" y="24"/>
		</contour>
		<contour>
			<point x="437" y="532" type="line" smooth="yes"/>
			<point x="466" y="632"/>
			<point x="485" y="645"/>
			<point x="518" y="700" type="curve"/>
			<point x="380" y="700" type="line"/>
			<point x="368" y="617" type="line"/>
			<point x="247" y="203" type="line"/>
			<point x="176" y="0" type="line"/>
			<point x="296" y="0" type="line"/>
			<point x="289" y="65"/>
			<point x="312" y="104"/>
			<point x="341" y="203" type="curve" smooth="yes"/>
		</contour>
		<contour>
			<point x="490" y="0" type="curve"/>
			<point x="643" y="0" type="line"/>
			<point x="670" y="92" type="line"/>
			<point x="588" y="92" type="line"/>
			<point x="561" y="493" type="line"/>
			<point x="557" y="589"/>
			<point x="551" y="653"/>
			<point x="563" y="700" type="curve"/>
			<point x="401" y="700" type="line"/>
			<point x="448" y="634"/>
			<point x="455" y="626"/>
			<point x="461" y="528" type="curve" smooth="yes"/>
			<point x="482" y="203" type="line" smooth="yes"/>
			<point x="488" y="109"/>
			<point x="492" y="46"/>
		</contour>
		<contour>
			<point x="814" y="497" type="line" smooth="yes"/>
			<point x="845" y="595"/>
			<point x="881" y="654"/>
			<point x="904" y="700" type="curve"/>
			<point x="764" y="700" type="line"/>
			<point x="756" y="619" type="line"/>
			<point x="627" y="203" type="line"/>
			<point x="555" y="0" type="line"/>
			<point x="689" y="0" type="line"/>
			<point x="678" y="65"/>
			<point x="690" y="106"/>
			<point x="721" y="203" type="curve" smooth="yes"/>
		</contour>
	</outline>
</glyph>
<glyph name="a" format="2">
	<advance width="620"/>
	<unicode hex="0061"/>
	<guideline x="525" y="572" angle="78"/>
	<outline>
		<contour>
			<point x="304" y="440" type="curve" smooth="yes"/>
			<point x="147" y="440"/>
			<point x="21" y="309"/>
			<point x="21" y="140" type="curve" smooth="yes"/>
			<point x="21" y="43"/>
			<point x="86" y="-10"/>
			<point x="174" y="-10" type="curve" smooth="yes"/>
			<point x="287" y="-10"/>
			<point x="354" y="86"/>
			<point x="493" y="266" type="curve"/>
			<point x="494" y="346" type="line"/>
			<point x="384" y="196"/>
			<point x="280" y="73"/>
			<point x="200" y="73" type="curve" smooth="yes"/>
			<point x="156" y="73"/>
			<point x="137" y="106"/>
			<point x="137" y="151" type="curve" smooth="yes"/>
			<point x="137" y="262"/>
			<point x="214" y="362"/>
			<point x="319" y="362" type="curve" smooth="yes"/>
			<point x="387" y="362"/>
			<point x="447" y="341"/>
			<point x="497" y="294" type="curve"/>
			<point x="538" y="323" type="line"/>
			<point x="490" y="376"/>
			<point x="414" y="440"/>
		</contour>
		<contour>
			<point x="568" y="305" type="line" smooth="yes"/>
			<point x="582" y="365"/>
			<point x="593" y="402"/>
			<point x="605" y="430" type="curve"/>
			<point x="495" y="430" type="line"/>
			<point x="470" y="305" type="line"/>
			<point x="429" y="125" type="line"/>
			<point x="404" y="0" type="line"/>
			<point x="513" y="0" type="line"/>
			<point x="513" y="40"/>
			<point x="514" y="66"/>
			<point x="527" y="125" type="curve" smooth="yes"/>
		</contour>
	</outline>
</glyph>
<glyph name="c" format="2">
	<advance width="547"/>
	<unicode hex="0063"/>
	<outline>
		<contour>
			<point x="325" y="440" type="curve" smooth="yes"/>
			<point x="141" y="440"/>
			<point x="19" y="319"/>
			<point x="19" y="165" type="curve" smooth="yes"/>
			<point x="19" y="56"/>
			<point x="97" y="-10"/>
			<point x="230" y="-10" type="curve" smooth="yes"/>
			<point x="333" y="-10"/>
			<point x="424" y="26"/>
			<point x="496" y="92" type="curve"/>
			<point x="472" y="133" type="line"/>
			<point x="401" y="97"/>
			<point x="339" y="73"/>
			<point x="248" y="73" type="curve" smooth="yes"/>
			<point x="179" y="73"/>
			<point x="135" y="111"/>
			<point x="135" y="178" type="curve" smooth="yes"/>
			<point x="135" y="290"/>
			<point x="206" y="367"/>
			<point x="324" y="367" type="curve" smooth="yes"/>
			<point x="392" y="367"/>
			<point x="448" y="345"/>
			<point x="480" y="304" type="curve"/>
			<point x="555" y="349" type="line"/>
			<point x="502" y="415"/>
			<point x="440" y="440"/>
		</contour>
	</outline>
</glyph>
<glyph name="d" format="2">
	<advance width="651"/>
	<unicode hex="0064"/>
	<outline>
		<contour>
			<point x="281" y="440" type="curve" smooth="yes"/>
			<point x="124" y="440"/>
			<point x="-2" y="309"/>
			<point x="-2" y="140" type="curve" smooth="yes"/>
			<point x="-2" y="43"/>
			<point x="63" y="-10"/>
			<point x="151" y="-10" type="curve" smooth="yes"/>
			<point x="264" y="-10"/>
			<point x="346" y="86"/>
			<point x="470" y="266" type="curve"/>
			<point x="471" y="346" type="line"/>
			<point x="361" y="196"/>
			<point x="257" y="73"/>
			<point x="177" y="73" type="curve" smooth="yes"/>
			<point x="133" y="73"/>
			<point x="114" y="106"/>
			<point x="114" y="151" type="curve" smooth="yes"/>
			<point x="114" y="262"/>
			<point x="191" y="362"/>
			<point x="296" y="362" type="curve" smooth="yes"/>
			<point x="364" y="362"/>
			<point x="424" y="341"/>
			<point x="474" y="294" type="curve"/>
			<point x="515" y="323" type="line"/>
			<point x="467" y="376"/>
			<point x="391" y="440"/>
		</contour>
		<contour>
			<point x="372" y="0" type="curve"/>
			<point x="493" y="0" type="line"/>
			<point x="493" y="40"/>
			<point x="494" y="65"/>
			<point x="507" y="125" type="curve" smooth="yes"/>
			<point x="620" y="655" type="line" smooth="yes"/>
			<point x="633" y="715"/>
			<point x="645" y="752"/>
			<point x="657" y="780" type="curve"/>
			<point x="536" y="780" type="line"/>
			<point x="536" y="740"/>
			<point x="535" y="715"/>
			<point x="522" y="655" type="curve" smooth="yes"/>
			<point x="409" y="125" type="line" smooth="yes"/>
			<point x="396" y="65"/>
			<point x="384" y="28"/>
		</contour>
	</outline>
</glyph>
<glyph name="e" format="2">
	<advance width="600"/>
	<unicode hex="0065"/>
	<outline>
		<contour>
			<point x="344" y="440" type="curve" smooth="yes"/>
			<point x="160" y="440"/>
			<point x="41" y="319"/>
			<point x="41" y="165" type="curve" smooth="yes"/>
			<point x="41" y="56"/>
			<point x="136" y="-10"/>
			<point x="249" y="-10" type="curve" smooth="yes"/>
			<point x="352" y="-10"/>
			<point x="436" y="30"/>
			<point x="485" y="62" type="curve"/>
			<point x="437" y="124" type="line"/>
			<point x="387" y="90"/>
			<point x="328" y="72"/>
			<point x="278" y="72" type="curve" smooth="yes"/>
			<point x="209" y="72"/>
			<point x="154" y="105"/>
			<point x="154" y="178" type="curve" smooth="yes"/>
			<point x="154" y="290"/>
			<point x="225" y="357"/>
			<point x="343" y="357" type="curve" smooth="yes"/>
			<point x="394" y="357"/>
			<point x="416" y="336"/>
			<point x="416" y="312" type="curve" smooth="yes"/>
			<point x="416" y="281"/>
			<point x="378" y="246"/>
			<point x="315" y="246" type="curve" smooth="yes"/>
			<point x="252" y="246"/>
			<point x="221" y="267"/>
			<point x="155" y="303" type="curve"/>
			<point x="106" y="265" type="line"/>
			<point x="160" y="233"/>
			<point x="222" y="182"/>
			<point x="310" y="182" type="curve" smooth="yes"/>
			<point x="454" y="182"/>
			<point x="523" y="250"/>
			<point x="523" y="316" type="curve" smooth="yes"/>
			<point x="523" y="379"/>
			<point x="461" y="440"/>
		</contour>
	</outline>
</glyph>
<glyph name="g" format="2">
	<advance width="600"/>
	<unicode hex="0067"/>
	<outline>
		<contour>
			<point x="317" y="440" type="curve" smooth="yes"/>
			<point x="160" y="440"/>
			<point x="34" y="309"/>
			<point x="34" y="140" type="curve" smooth="yes"/>
			<point x="34" y="43"/>
			<point x="99" y="-10"/>
			<point x="187" y="-10" type="curve" smooth="yes"/>
			<point x="300" y="-10"/>
			<point x="367" y="86"/>
			<point x="506" y="266" type="curve"/>
			<point x="507" y="346" type="line"/>
			<point x="397" y="196"/>
			<point x="293" y="73"/>
			<point x="213" y="73" type="curve" smooth="yes"/>
			<point x="169" y="73"/>
			<point x="150" y="106"/>
			<point x="150" y="151" type="curve" smooth="yes"/>
			<point x="150" y="262"/>
			<point x="227" y="362"/>
			<point x="332" y="362" type="curve" smooth="yes"/>
			<point x="400" y="362"/>
			<point x="460" y="341"/>
			<point x="510" y="294" type="curve"/>
			<point x="551" y="323" type="line"/>
			<point x="503" y="376"/>
			<point x="427" y="440"/>
		</contour>
		<contour>
			<point x="409" y="-46" type="curve" smooth="yes"/>
			<point x="384" y="-110"/>
			<point x="350" y="-146"/>
			<point x="284" y="-146" type="curve" smooth="yes"/>
			<point x="210" y="-146"/>
			<point x="138" y="-117"/>
			<point x="79" y="-71" type="curve"/>
			<point x="23" y="-134" type="line"/>
			<point x="91" y="-184"/>
			<point x="179" y="-205"/>
			<point x="257" y="-205" type="curve" smooth="yes"/>
			<point x="396" y="-205"/>
			<point x="503" y="-137"/>
			<point x="525" y="-6" type="curve" smooth="yes"/>
			<point x="532" y="35"/>
			<point x="545" y="102"/>
			<point x="557" y="169" type="curve" smooth="yes"/>
			<point x="581" y="305" type="line" smooth="yes"/>
			<point x="592" y="365"/>
			<point x="606" y="402"/>
			<point x="618" y="430" type="curve"/>
			<point x="508" y="430" type="line"/>
			<point x="483" y="305" type="line"/>
			<point x="454" y="146" type="line" smooth="yes"/>
			<point x="433" y="30"/>
			<point x="416" y="-28"/>
		</contour>
	</outline>
</glyph>
<glyph name="h" format="2">
  <advance width="649"/>
  <unicode hex="0068"/>
  <guideline x="565" y="205" angle="78"/>
  <outline>
    <contour>
      <point x="19" y="0" type="curve"/>
      <point x="140" y="0" type="line"/>
      <point x="140" y="40"/>
      <point x="141" y="65"/>
      <point x="154" y="125" type="curve" smooth="yes"/>
      <point x="267" y="655" type="line" smooth="yes"/>
      <point x="280" y="715"/>
      <point x="292" y="752"/>
      <point x="304" y="780" type="curve"/>
      <point x="183" y="780" type="line"/>
      <point x="183" y="740"/>
      <point x="182" y="715"/>
      <point x="169" y="655" type="curve" smooth="yes"/>
      <point x="56" y="125" type="line" smooth="yes"/>
      <point x="43" y="65"/>
      <point x="31" y="28"/>
    </contour>
    <contour>
      <point x="468" y="224" type="curve" smooth="yes"/>
      <point x="447" y="125" type="line" smooth="yes"/>
      <point x="434" y="64"/>
      <point x="422" y="28"/>
      <point x="410" y="0" type="curve"/>
      <point x="531" y="0" type="line"/>
      <point x="531" y="40"/>
      <point x="533" y="67"/>
      <point x="545" y="125" type="curve" smooth="yes"/>
      <point x="569" y="240" type="line" smooth="yes"/>
      <point x="572" y="255"/>
      <point x="576" y="285"/>
      <point x="576" y="303" type="curve" smooth="yes"/>
      <point x="576" y="379"/>
      <point x="521" y="430"/>
      <point x="427" y="430" type="curve" smooth="yes"/>
      <point x="311" y="430"/>
      <point x="204" y="303"/>
      <point x="143" y="190" type="curve"/>
      <point x="143" y="123" type="line"/>
      <point x="209" y="243"/>
      <point x="313" y="347"/>
      <point x="387" y="347" type="curve" smooth="yes"/>
      <point x="444" y="347"/>
      <point x="473" y="324"/>
      <point x="473" y="275" type="curve" smooth="yes"/>
      <point x="473" y="258"/>
      <point x="472" y="241"/>
    </contour>
  </outline>
</glyph>
<glyph name="i" format="2">
	<advance width="256"/>
	<unicode hex="0069"/>
	<outline>
		<contour>
			<point x="17" y="0" type="curve"/>
			<point x="138" y="0" type="line"/>
			<point x="138" y="40"/>
			<point x="135" y="66"/>
			<point x="152" y="125" type="curve" smooth="yes"/>
			<point x="202" y="303" type="line" smooth="yes"/>
			<point x="219" y="362"/>
			<point x="227" y="400"/>
			<point x="239" y="428" type="curve"/>
			<point x="118" y="428" type="line"/>
			<point x="118" y="388"/>
			<point x="121" y="362"/>
			<point x="104" y="303" type="curve" smooth="yes"/>
			<point x="54" y="125" type="line" smooth="yes"/>
			<point x="37" y="66"/>
			<point x="29" y="28"/>
		</contour>
		<contour>
			<point x="228" y="680" type="curve" smooth="yes"/>
			<point x="261" y="680"/>
			<point x="284" y="662"/>
			<point x="284" y="618" type="curve" smooth="yes"/>
			<point x="284" y="566"/>
			<point x="251" y="530"/>
			<point x="206" y="530" type="curve" smooth="yes"/>
			<point x="171" y="530"/>
			<point x="150" y="547"/>
			<point x="150" y="593" type="curve" smooth="yes"/>
			<point x="150" y="643"/>
			<point x="183" y="680"/>
		</contour>
	</outline>
</glyph>
<glyph name="k" format="2">
	<advance width="570"/>
	<unicode hex="006B"/>
	<outline>
		<contour>
			<point x="18" y="0" type="curve"/>
			<point x="139" y="0" type="line"/>
			<point x="139" y="40"/>
			<point x="140" y="65"/>
			<point x="153" y="125" type="curve" smooth="yes"/>
			<point x="266" y="655" type="line" smooth="yes"/>
			<point x="279" y="715"/>
			<point x="291" y="752"/>
			<point x="303" y="780" type="curve"/>
			<point x="182" y="780" type="line"/>
			<point x="182" y="740"/>
			<point x="181" y="715"/>
			<point x="168" y="655" type="curve" smooth="yes"/>
			<point x="55" y="125" type="line" smooth="yes"/>
			<point x="42" y="65"/>
			<point x="30" y="28"/>
		</contour>
		<contour>
			<point x="325" y="238" type="line"/>
			<point x="200" y="238" type="line"/>
			<point x="336" y="45" type="line"/>
			<point x="354" y="0" type="line"/>
			<point x="512" y="0" type="line"/>
			<point x="479" y="24"/>
			<point x="457" y="51"/>
			<point x="434" y="84" type="curve" smooth="yes"/>
		</contour>
		<contour>
			<point x="324" y="235" type="line"/>
			<point x="443" y="343" type="line" smooth="yes"/>
			<point x="475" y="372"/>
			<point x="518" y="401"/>
			<point x="565" y="429" type="curve"/>
			<point x="395" y="429" type="line"/>
			<point x="341" y="362" type="line"/>
			<point x="200" y="238" type="line"/>
		</contour>
	</outline>
</glyph>
<glyph name="l" format="2">
	<advance width="275"/>
	<unicode hex="006C"/>
	<outline>
		<contour>
			<point x="-5" y="0" type="curve"/>
			<point x="116" y="0" type="line"/>
			<point x="116" y="40"/>
			<point x="117" y="65"/>
			<point x="130" y="125" type="curve" smooth="yes"/>
			<point x="243" y="655" type="line" smooth="yes"/>
			<point x="256" y="715"/>
			<point x="268" y="752"/>
			<point x="280" y="780" type="curve"/>
			<point x="159" y="780" type="line"/>
			<point x="159" y="740"/>
			<point x="158" y="715"/>
			<point x="145" y="655" type="curve" smooth="yes"/>
			<point x="32" y="125" type="line" smooth="yes"/>
			<point x="19" y="65"/>
			<point x="7" y="28"/>
		</contour>
	</outline>
</glyph>
<glyph name="m" format="2">
	<advance width="921"/>
	<unicode hex="006D"/>
	<anchor x="568" y="428" name="top"/>
	<anchor x="451" y="0" name="bottom"/>
	<outline>
		<contour>
			<point x="11" y="0" type="curve"/>
			<point x="132" y="0" type="line"/>
			<point x="132" y="40"/>
			<point x="129" y="66"/>
			<point x="146" y="125" type="curve" smooth="yes"/>
			<point x="196" y="303" type="line" smooth="yes"/>
			<point x="213" y="362"/>
			<point x="221" y="400"/>
			<point x="233" y="428" type="curve"/>
			<point x="112" y="428" type="line"/>
			<point x="112" y="388"/>
			<point x="115" y="362"/>
			<point x="98" y="303" type="curve" smooth="yes"/>
			<point x="48" y="125" type="line" smooth="yes"/>
			<point x="31" y="66"/>
			<point x="23" y="28"/>
		</contour>
		<contour>
			<point x="430" y="224" type="curve" smooth="yes"/>
			<point x="409" y="125" type="line" smooth="yes"/>
			<point x="396" y="64"/>
			<point x="384" y="28"/>
			<point x="372" y="0" type="curve"/>
			<point x="493" y="0" type="line"/>
			<point x="493" y="40"/>
			<point x="495" y="67"/>
			<point x="507" y="125" type="curve" smooth="yes"/>
			<point x="531" y="240" type="line" smooth="yes"/>
			<point x="534" y="255"/>
			<point x="538" y="285"/>
			<point x="538" y="303" type="curve" smooth="yes"/>
			<point x="538" y="379"/>
			<point x="506" y="439"/>
			<point x="426" y="439" type="curve" smooth="yes"/>
			<point x="310" y="439"/>
			<point x="194" y="303"/>
			<point x="135" y="190" type="curve"/>
			<point x="135" y="123" type="line"/>
			<point x="198" y="243"/>
			<point x="295" y="347"/>
			<point x="369" y="347" type="curve" smooth="yes"/>
			<point x="413" y="347"/>
			<point x="435" y="324"/>
			<point x="435" y="275" type="curve" smooth="yes"/>
			<point x="435" y="258"/>
			<point x="434" y="241"/>
		</contour>
		<contour>
			<point x="773" y="224" type="curve" smooth="yes"/>
			<point x="752" y="125" type="line" smooth="yes"/>
			<point x="739" y="64"/>
			<point x="727" y="28"/>
			<point x="715" y="0" type="curve"/>
			<point x="836" y="0" type="line"/>
			<point x="836" y="40"/>
			<point x="838" y="67"/>
			<point x="850" y="125" type="curve" smooth="yes"/>
			<point x="874" y="240" type="line" smooth="yes"/>
			<point x="877" y="255"/>
			<point x="881" y="285"/>
			<point x="881" y="303" type="curve" smooth="yes"/>
			<point x="881" y="379"/>
			<point x="849" y="439"/>
			<point x="769" y="439" type="curve" smooth="yes"/>
			<point x="653" y="439"/>
			<point x="545" y="303"/>
			<point x="488" y="190" type="curve"/>
			<point x="488" y="123" type="line"/>
			<point x="548" y="243"/>
			<point x="638" y="347"/>
			<point x="712" y="347" type="curve" smooth="yes"/>
			<point x="756" y="347"/>
			<point x="778" y="324"/>
			<point x="778" y="275" type="curve" smooth="yes"/>
			<point x="778" y="258"/>
			<point x="777" y="241"/>
		</contour>
	</outline>
</glyph>
<glyph name="n" format="2">
	<advance width="600"/>
	<unicode hex="006E"/>
	<outline>
		<contour>
			<point x="19" y="0" type="curve"/>
			<point x="140" y="0" type="line"/>
			<point x="140" y="40"/>
			<point x="141" y="61"/>
			<point x="154" y="125" type="curve" smooth="yes"/>
			<point x="192" y="305" type="line" smooth="yes"/>
			<point x="205" y="367"/>
			<point x="217" y="402"/>
			<point x="229" y="430" type="curve"/>
			<point x="108" y="430" type="line"/>
			<point x="108" y="390"/>
			<point x="107" y="367"/>
			<point x="94" y="305" type="curve" smooth="yes"/>
			<point x="56" y="125" type="line" smooth="yes"/>
			<point x="43" y="61"/>
			<point x="31" y="28"/>
		</contour>
		<contour>
			<point x="468" y="224" type="curve" smooth="yes"/>
			<point x="447" y="125" type="line" smooth="yes"/>
			<point x="434" y="64"/>
			<point x="422" y="28"/>
			<point x="410" y="0" type="curve"/>
			<point x="531" y="0" type="line"/>
			<point x="531" y="40"/>
			<point x="533" y="67"/>
			<point x="545" y="125" type="curve" smooth="yes"/>
			<point x="569" y="240" type="line" smooth="yes"/>
			<point x="572" y="255"/>
			<point x="576" y="285"/>
			<point x="576" y="303" type="curve" smooth="yes"/>
			<point x="576" y="379"/>
			<point x="521" y="430"/>
			<point x="427" y="430" type="curve" smooth="yes"/>
			<point x="311" y="430"/>
			<point x="204" y="303"/>
			<point x="143" y="190" type="curve"/>
			<point x="143" y="123" type="line"/>
			<point x="209" y="243"/>
			<point x="313" y="347"/>
			<point x="387" y="347" type="curve" smooth="yes"/>
			<point x="444" y="347"/>
			<point x="473" y="324"/>
			<point x="473" y="275" type="curve" smooth="yes"/>
			<point x="473" y="258"/>
			<point x="472" y="241"/>
		</contour>
	</outline>
</glyph>
<glyph name="o" format="2">
	<advance width="617"/>
	<unicode hex="006F"/>
	<outline>
		<contour>
			<point x="343" y="440" type="curve" smooth="yes"/>
			<point x="147" y="440"/>
			<point x="17" y="329"/>
			<point x="17" y="175" type="curve" smooth="yes"/>
			<point x="17" y="46"/>
			<point x="123" y="-10"/>
			<point x="268" y="-10" type="curve" smooth="yes"/>
			<point x="464" y="-10"/>
			<point x="601" y="100"/>
			<point x="601" y="254" type="curve" smooth="yes"/>
			<point x="601" y="383"/>
			<point x="488" y="440"/>
		</contour>
		<contour>
			<point x="336" y="374" type="curve" smooth="yes"/>
			<point x="425" y="374"/>
			<point x="486" y="336"/>
			<point x="486" y="241" type="curve" smooth="yes"/>
			<point x="486" y="132"/>
			<point x="397" y="55"/>
			<point x="282" y="55" type="curve" smooth="yes"/>
			<point x="192" y="55"/>
			<point x="132" y="93"/>
			<point x="132" y="188" type="curve" smooth="yes"/>
			<point x="132" y="297"/>
			<point x="221" y="374"/>
		</contour>
	</outline>
</glyph>
<glyph name="p" format="2">
	<advance width="634"/>
	<unicode hex="0070"/>
	<outline>
		<contour>
			<point x="346" y="1" type="curve" smooth="yes"/>
			<point x="503" y="1"/>
			<point x="629" y="132"/>
			<point x="629" y="301" type="curve" smooth="yes"/>
			<point x="629" y="398"/>
			<point x="564" y="451"/>
			<point x="476" y="451" type="curve" smooth="yes"/>
			<point x="363" y="451"/>
			<point x="281" y="355"/>
			<point x="157" y="175" type="curve"/>
			<point x="156" y="95" type="line"/>
			<point x="266" y="245"/>
			<point x="370" y="368"/>
			<point x="450" y="368" type="curve" smooth="yes"/>
			<point x="494" y="368"/>
			<point x="513" y="335"/>
			<point x="513" y="290" type="curve" smooth="yes"/>
			<point x="513" y="179"/>
			<point x="436" y="79"/>
			<point x="331" y="79" type="curve" smooth="yes"/>
			<point x="263" y="79"/>
			<point x="203" y="100"/>
			<point x="153" y="147" type="curve"/>
			<point x="112" y="118" type="line"/>
			<point x="160" y="65"/>
			<point x="236" y="1"/>
		</contour>
		<contour>
			<point x="255" y="441" type="curve"/>
			<point x="134" y="441" type="line"/>
			<point x="134" y="401"/>
			<point x="133" y="376"/>
			<point x="120" y="316" type="curve" smooth="yes"/>
			<point x="37" y="-75" type="line" smooth="yes"/>
			<point x="24" y="-135"/>
			<point x="12" y="-172"/>
			<point x="0" y="-200" type="curve"/>
			<point x="121" y="-200" type="line"/>
			<point x="121" y="-160"/>
			<point x="122" y="-135"/>
			<point x="135" y="-75" type="curve" smooth="yes"/>
			<point x="218" y="316" type="line" smooth="yes"/>
			<point x="231" y="376"/>
			<point x="243" y="413"/>
		</contour>
	</outline>
</glyph>
<glyph name="r" format="2">
	<advance width="417"/>
	<unicode hex="0072"/>
	<anchor x="301" y="428" name="top"/>
	<anchor x="194" y="0" name="bottom"/>
	<outline>
		<contour>
			<point x="141" y="123" type="line"/>
			<point x="208" y="246"/>
			<point x="266" y="329"/>
			<point x="338" y="329" type="curve" smooth="yes"/>
			<point x="354" y="329"/>
			<point x="364" y="321"/>
			<point x="371" y="297" type="curve"/>
			<point x="344" y="246" type="line"/>
			<point x="427" y="439" type="line"/>
			<point x="307" y="439"/>
			<point x="232" y="358"/>
			<point x="141" y="190" type="curve"/>
		</contour>
		<contour>
			<point x="17" y="0" type="curve"/>
			<point x="138" y="0" type="line"/>
			<point x="138" y="40"/>
			<point x="135" y="66"/>
			<point x="152" y="125" type="curve" smooth="yes"/>
			<point x="202" y="303" type="line" smooth="yes"/>
			<point x="219" y="362"/>
			<point x="227" y="400"/>
			<point x="239" y="428" type="curve"/>
			<point x="118" y="428" type="line"/>
			<point x="118" y="388"/>
			<point x="121" y="362"/>
			<point x="104" y="303" type="curve" smooth="yes"/>
			<point x="54" y="125" type="line" smooth="yes"/>
			<point x="37" y="66"/>
			<point x="29" y="28"/>
		</contour>
	</outline>
</glyph>
<glyph name="s" format="2">
	<advance width="541"/>
	<unicode hex="0073"/>
	<outline>
		<contour>
			<point x="298" y="440" type="curve" smooth="yes"/>
			<point x="143" y="440"/>
			<point x="65" y="388"/>
			<point x="65" y="306" type="curve" smooth="yes"/>
			<point x="65" y="237"/>
			<point x="140" y="208"/>
			<point x="245" y="183" type="curve" smooth="yes"/>
			<point x="350" y="158"/>
			<point x="394" y="133"/>
			<point x="394" y="105" type="curve" smooth="yes"/>
			<point x="394" y="70"/>
			<point x="343" y="52"/>
			<point x="268" y="52" type="curve" smooth="yes"/>
			<point x="187" y="52"/>
			<point x="109" y="78"/>
			<point x="50" y="124" type="curve"/>
			<point x="-6" y="61" type="line"/>
			<point x="62" y="11"/>
			<point x="159" y="-10"/>
			<point x="250" y="-10" type="curve" smooth="yes"/>
			<point x="386" y="-10"/>
			<point x="499" y="26"/>
			<point x="499" y="126" type="curve" smooth="yes"/>
			<point x="499" y="193"/>
			<point x="446" y="233"/>
			<point x="298" y="265" type="curve" smooth="yes"/>
			<point x="217" y="283"/>
			<point x="166" y="301"/>
			<point x="166" y="332" type="curve" smooth="yes"/>
			<point x="166" y="357"/>
			<point x="195" y="378"/>
			<point x="273" y="378" type="curve" smooth="yes"/>
			<point x="355" y="378"/>
			<point x="421" y="355"/>
			<point x="461" y="306" type="curve"/>
			<point x="534" y="344" type="line"/>
			<point x="493" y="400"/>
			<point x="417" y="440"/>
		</contour>
	</outline>
</glyph>
<glyph name="t" format="2">
	<advance width="334"/>
	<unicode hex="0074"/>
	<outline>
		<contour>
			<point x="31" y="358" type="line"/>
			<point x="191" y="352" type="line"/>
			<point x="228" y="349"/>
			<point x="293" y="349"/>
			<point x="300" y="326" type="curve"/>
			<point x="329" y="430" type="line"/>
			<point x="326" y="429"/>
			<point x="300" y="429"/>
			<point x="273" y="429" type="curve" smooth="yes"/>
			<point x="238" y="429"/>
			<point x="201" y="430"/>
			<point x="170" y="430" type="curve"/>
			<point x="58" y="434" type="line"/>
		</contour>
		<contour>
			<point x="54" y="187" type="line" smooth="yes"/>
			<point x="45" y="158"/>
			<point x="41" y="133"/>
			<point x="41" y="111" type="curve" smooth="yes"/>
			<point x="41" y="39"/>
			<point x="84" y="0"/>
			<point x="154" y="0" type="curve" smooth="yes"/>
			<point x="183" y="0"/>
			<point x="216" y="6"/>
			<point x="252" y="20" type="curve"/>
			<point x="277" y="118" type="line"/>
			<point x="247" y="97"/>
			<point x="202" y="89"/>
			<point x="182" y="89" type="curve" smooth="yes"/>
			<point x="127" y="89"/>
			<point x="146" y="153"/>
			<point x="157" y="192" type="curve" smooth="yes"/>
			<point x="246" y="499" type="line"/>
			<point x="169" y="499" type="line"/>
			<point x="124" y="415" type="line"/>
		</contour>
	</outline>
</glyph>
<glyph name="u" format="2">
	<advance width="600"/>
	<unicode hex="0075"/>
	<outline>
		<contour>
			<point x="620" y="430" type="curve"/>
			<point x="499" y="430" type="line"/>
			<point x="499" y="390"/>
			<point x="498" y="369"/>
			<point x="485" y="305" type="curve" smooth="yes"/>
			<point x="447" y="125" type="line" smooth="yes"/>
			<point x="434" y="63"/>
			<point x="422" y="28"/>
			<point x="410" y="0" type="curve"/>
			<point x="531" y="0" type="line"/>
			<point x="531" y="40"/>
			<point x="532" y="63"/>
			<point x="545" y="125" type="curve" smooth="yes"/>
			<point x="583" y="305" type="line" smooth="yes"/>
			<point x="596" y="369"/>
			<point x="608" y="402"/>
		</contour>
		<contour>
			<point x="171" y="206" type="curve" smooth="yes"/>
			<point x="192" y="305" type="line" smooth="yes"/>
			<point x="205" y="366"/>
			<point x="217" y="402"/>
			<point x="229" y="430" type="curve"/>
			<point x="108" y="430" type="line"/>
			<point x="108" y="390"/>
			<point x="106" y="363"/>
			<point x="94" y="305" type="curve" smooth="yes"/>
			<point x="70" y="190" type="line" smooth="yes"/>
			<point x="67" y="175"/>
			<point x="63" y="145"/>
			<point x="63" y="127" type="curve" smooth="yes"/>
			<point x="63" y="51"/>
			<point x="118" y="0"/>
			<point x="212" y="0" type="curve" smooth="yes"/>
			<point x="328" y="0"/>
			<point x="435" y="127"/>
			<point x="496" y="240" type="curve"/>
			<point x="496" y="307" type="line"/>
			<point x="430" y="187"/>
			<point x="326" y="83"/>
			<point x="252" y="83" type="curve" smooth="yes"/>
			<point x="195" y="83"/>
			<point x="166" y="106"/>
			<point x="166" y="155" type="curve" smooth="yes"/>
			<point x="166" y="172"/>
			<point x="167" y="189"/>
		</contour>
	</outline>
</glyph>
<glyph name="v" format="2">
	<advance width="443"/>
	<unicode hex="0076"/>
	<outline>
		<contour>
			<point x="100" y="0" type="curve"/>
			<point x="221" y="0" type="line"/>
			<point x="236" y="69" type="line"/>
			<point x="205" y="69" type="line"/>
			<point x="158" y="303" type="line"/>
			<point x="150" y="362"/>
			<point x="143" y="400"/>
			<point x="143" y="428" type="curve"/>
			<point x="22" y="428" type="line"/>
			<point x="38" y="388"/>
			<point x="52" y="362"/>
			<point x="60" y="303" type="curve" smooth="yes"/>
			<point x="85" y="125" type="line" smooth="yes"/>
			<point x="93" y="66"/>
			<point x="100" y="28"/>
		</contour>
		<contour>
			<point x="387" y="305" type="line" smooth="yes"/>
			<point x="412" y="365"/>
			<point x="430" y="402"/>
			<point x="447" y="430" type="curve"/>
			<point x="343" y="430" type="line"/>
			<point x="294" y="305" type="line"/>
			<point x="219" y="125" type="line"/>
			<point x="170" y="0" type="line"/>
			<point x="274" y="0" type="line"/>
			<point x="282" y="40"/>
			<point x="288" y="66"/>
			<point x="313" y="125" type="curve" smooth="yes"/>
		</contour>
	</outline>
</glyph>
<glyph name="w" format="2">
	<advance width="735"/>
	<unicode hex="0077"/>
	<outline>
		<contour>
			<point x="101" y="0" type="curve"/>
			<point x="212" y="0" type="line"/>
			<point x="227" y="69" type="line"/>
			<point x="196" y="69" type="line"/>
			<point x="159" y="303" type="line"/>
			<point x="151" y="362"/>
			<point x="144" y="400"/>
			<point x="144" y="428" type="curve"/>
			<point x="23" y="428" type="line"/>
			<point x="39" y="388"/>
			<point x="51" y="362"/>
			<point x="59" y="303" type="curve" smooth="yes"/>
			<point x="92" y="66"/>
			<point x="101" y="28"/>
		</contour>
		<contour>
			<point x="362" y="305" type="line" smooth="yes"/>
			<point x="382" y="367"/>
			<point x="405" y="402"/>
			<point x="422" y="429" type="curve"/>
			<point x="308" y="429" type="line"/>
			<point x="269" y="305" type="line"/>
			<point x="210" y="125" type="line"/>
			<point x="161" y="0" type="line"/>
			<point x="265" y="0" type="line"/>
			<point x="273" y="40"/>
			<point x="284" y="64"/>
			<point x="304" y="125" type="curve" smooth="yes"/>
		</contour>
		<contour>
			<point x="401" y="0" type="curve"/>
			<point x="522" y="0" type="line"/>
			<point x="537" y="69" type="line"/>
			<point x="506" y="69" type="line"/>
			<point x="453" y="303" type="line"/>
			<point x="445" y="362"/>
			<point x="438" y="400"/>
			<point x="438" y="429" type="curve"/>
			<point x="307" y="429" type="line"/>
			<point x="323" y="388"/>
			<point x="344" y="363"/>
			<point x="355" y="303" type="curve" smooth="yes"/>
			<point x="386" y="125" type="line" smooth="yes"/>
			<point x="396" y="67"/>
			<point x="401" y="28"/>
		</contour>
		<contour>
			<point x="679" y="305" type="line" smooth="yes"/>
			<point x="701" y="365"/>
			<point x="722" y="402"/>
			<point x="739" y="430" type="curve"/>
			<point x="635" y="430" type="line"/>
			<point x="586" y="305" type="line"/>
			<point x="520" y="125" type="line"/>
			<point x="471" y="0" type="line"/>
			<point x="575" y="0" type="line"/>
			<point x="583" y="40"/>
			<point x="593" y="66"/>
			<point x="614" y="125" type="curve" smooth="yes"/>
		</contour>
	</outline>
</glyph>
<glyph name="y" format="2">
	<advance width="480"/>
	<unicode hex="0079"/>
	<outline>
		<contour>
			<point x="165" y="21" type="curve"/>
			<point x="247" y="4" type="line"/>
			<point x="260" y="49" type="line"/>
			<point x="251" y="136" type="line"/>
			<point x="199" y="428" type="line"/>
			<point x="62" y="428" type="line"/>
			<point x="86" y="398"/>
			<point x="95" y="360"/>
			<point x="104" y="318" type="curve"/>
			<point x="154" y="97" type="line"/>
			<point x="164" y="64"/>
			<point x="164" y="52"/>
		</contour>
		<contour>
			<point x="465" y="305" type="line" smooth="yes"/>
			<point x="493" y="365"/>
			<point x="513" y="402"/>
			<point x="532" y="430" type="curve"/>
			<point x="420" y="430" type="line"/>
			<point x="251" y="70"/>
			<point x="217" y="-15"/>
			<point x="190" y="-74" type="curve" smooth="yes"/>
			<point x="171" y="-113"/>
			<point x="159" y="-142"/>
			<point x="116" y="-142" type="curve" smooth="yes"/>
			<point x="95" y="-142"/>
			<point x="68" y="-136"/>
			<point x="41" y="-125" type="curve" smooth="yes"/>
			<point x="20" y="-116"/>
			<point x="0" y="-103"/>
			<point x="-19" y="-82" type="curve"/>
			<point x="-52" y="-197" type="line"/>
			<point x="-12" y="-205"/>
			<point x="23" y="-209"/>
			<point x="55" y="-209" type="curve" smooth="yes"/>
			<point x="144" y="-209"/>
			<point x="212" y="-179"/>
			<point x="249" y="-133" type="curve" smooth="yes"/>
			<point x="293" y="-79"/>
			<point x="357" y="72"/>
			<point x="382" y="125" type="curve" smooth="yes"/>
		</contour>
	</outline>
</glyph>
<glyph name="cedilla" format="2">
	<advance width="282"/>
	<unicode hex="00B8"/>
	<outline>
		<contour>
			<point x="-19" y="-154" type="line"/>
			<point x="35" y="-191"/>
			<point x="85" y="-206"/>
			<point x="129" y="-206" type="curve" smooth="yes"/>
			<point x="221" y="-206"/>
			<point x="282" y="-140"/>
			<point x="282" y="-82" type="curve" smooth="yes"/>
			<point x="282" y="-46"/>
			<point x="260" y="-14"/>
			<point x="208" y="0" type="curve"/>
			<point x="142" y="-72" type="line"/>
			<point x="135" y="-43" type="line"/>
			<point x="177" y="-50"/>
			<point x="195" y="-71"/>
			<point x="195" y="-93" type="curve" smooth="yes"/>
			<point x="195" y="-121"/>
			<point x="163" y="-151"/>
			<point x="109" y="-151" type="curve" smooth="yes"/>
			<point x="76" y="-151"/>
			<point x="35" y="-140"/>
			<point x="-11" y="-111" type="curve"/>
			<point x="28" y="-111" type="line"/>
			<point x="-18" y="-200" type="line"/>
		</contour>
	</outline>
</glyph>
<glyph name="tildecomb" format="2">
	<advance width="614"/>
	<unicode hex="0303"/>
	<anchor x="307" y="657" name="top"/>
	<anchor x="307" y="428" name="_top"/>
	<outline>
		<contour>
			<point x="73" y="584" type="line"/>
			<point x="85" y="591"/>
			<point x="103" y="602"/>
			<point x="120" y="612" type="curve" smooth="yes"/>
			<point x="163" y="638"/>
			<point x="194" y="652"/>
			<point x="223" y="652" type="curve" smooth="yes"/>
			<point x="248" y="652"/>
			<point x="273" y="642"/>
			<point x="303" y="619" type="curve" smooth="yes"/>
			<point x="331" y="598"/>
			<point x="345" y="588"/>
			<point x="366" y="588" type="curve" smooth="yes"/>
			<point x="406" y="588"/>
			<point x="456" y="624"/>
			<point x="467" y="657" type="curve"/>
			<point x="509" y="622" type="line"/>
			<point x="501" y="615"/>
			<point x="492" y="607"/>
			<point x="483" y="600" type="curve" smooth="yes"/>
			<point x="415" y="548"/>
			<point x="386" y="521"/>
			<point x="337" y="521" type="curve" smooth="yes"/>
			<point x="309" y="521"/>
			<point x="284" y="534"/>
			<point x="244" y="564" type="curve" smooth="yes"/>
			<point x="226" y="578"/>
			<point x="212" y="591"/>
			<point x="191" y="591" type="curve" smooth="yes"/>
			<point x="169" y="591"/>
			<point x="127" y="577"/>
			<point x="109" y="544" type="curve"/>
		</contour>
	</outline>
</glyph>
